<svg width="256" height="256" viewBox="0 0 256 256" xmlns="http://www.w3.org/2000/svg">
  <rect x="28" y="28" width="200" height="200" rx="48" fill="#ffffff"></rect>
  <path fill="#256af4" d="M128 56c-39.8 0-72 32.2-72 72s32.2 72 72 72 72-32.2 72-72-32.2-72-72-72zm0 18c9.9 0 19.3 2.5 27.6 7l-10.4 13.8h-34.4L100.4 81c8.3-4.5 17.7-7 27.6-7zm-43.6 25.4l10.4 13.8-6.8 20.9-16.8-4.1c1.5-12.6 6.8-24 13.2-30.6zm87.2 0c6.4 6.6 11.7 18 13.2 30.6l-16.8 4.1-6.8-20.9 10.4-13.8zM128 182c-12.4 0-23.9-4.3-32.9-11.5l5.5-16.8h54.8l5.5 16.8C151.9 177.7 140.4 182 128 182z"></path>
</svg>
